<?xml version="1.0" encoding="UTF-8" standalone="no"?>
<!-- Created with Inkscape (http://www.inkscape.org/) -->

<svg
        xmlns:dc="http://purl.org/dc/elements/1.1/"
        xmlns:cc="http://creativecommons.org/ns#"
        xmlns:rdf="http://www.w3.org/1999/02/22-rdf-syntax-ns#"
        xmlns:svg="http://www.w3.org/2000/svg"
        xmlns="http://www.w3.org/2000/svg"
        xmlns:sodipodi="http://sodipodi.sourceforge.net/DTD/sodipodi-0.dtd"
        xmlns:inkscape="http://www.inkscape.org/namespaces/inkscape"
        width="210mm"
        height="297mm"
        viewBox="0 0 210 297"
        version="1.1"
        id="svg8"
        inkscape:version="0.92.2 5c3e80d, 2017-08-06"
        sodipodi:docname="engines.svg">
    <defs
            id="defs2">
        <inkscape:path-effect
                effect="mirror_symmetry"
                start_point="93.672885,30.693175"
                end_point="93.672885,152.20981"
                center_point="93.672885,91.451493"
                id="path-effect80"
                is_visible="true"
                mode="free"
                discard_orig_path="false"
                fuse_paths="true"
                oposite_fuse="false" />
        <inkscape:path-effect
                effect="bspline"
                id="path-effect57"
                is_visible="true"
                weight="33.333333"
                steps="2"
                helper_size="0"
                apply_no_weight="true"
                apply_with_weight="true"
                only_selected="false" />
        <inkscape:path-effect
                effect="bspline"
                id="path-effect20"
                is_visible="true"
                weight="33.333333"
                steps="2"
                helper_size="0"
                apply_no_weight="true"
                apply_with_weight="true"
                only_selected="false" />
        <inkscape:path-effect
                effect="bspline"
                id="path-effect14"
                is_visible="true"
                weight="33.333333"
                steps="2"
                helper_size="0"
                apply_no_weight="true"
                apply_with_weight="true"
                only_selected="false" />
    </defs>
    <sodipodi:namedview
            id="base"
            pagecolor="#ffffff"
            bordercolor="#666666"
            borderopacity="1.0"
            inkscape:pageopacity="0.0"
            inkscape:pageshadow="2"
            inkscape:zoom="1"
            inkscape:cx="366.50021"
            inkscape:cy="727.46072"
            inkscape:document-units="mm"
            inkscape:current-layer="g27"
            showgrid="false"
            inkscape:snap-global="false"
            inkscape:window-width="1682"
            inkscape:window-height="963"
            inkscape:window-x="0"
            inkscape:window-y="0"
            inkscape:window-maximized="0" />
    <metadata
            id="metadata5">
        <rdf:RDF>
            <cc:Work
                    rdf:about="">
                <dc:format>image/svg+xml</dc:format>
                <dc:type
                        rdf:resource="http://purl.org/dc/dcmitype/StillImage" />
                <dc:title />
            </cc:Work>
        </rdf:RDF>
    </metadata>
    <g
            inkscape:label="Layer 1"
            inkscape:groupmode="layer"
            id="layer1">
        <g
                id="g27"
                transform="translate(-3.7417734,0.74835468)">
            <path
                    style="fill:none;fill-rule:evenodd;stroke:#000000;stroke-width:0.26458332px;stroke-linecap:butt;stroke-linejoin:miter;stroke-opacity:1"
                    d="m 85.74327,95.74144 v -7.125819 c 0,-2.892606 0,-5.855754 -0.657122,-7.512862 -0.657121,-1.657108 -1.972529,-2.009571 -2.749723,-2.217819 l -3.554766,-0.952497 c -2.53661,-0.679683 -7.369431,-1.974634 -10.336541,-2.864495 -2.967111,-0.889862 -4.106336,-1.391121 -4.639215,-2.573809 -0.53288,-1.182689 -0.53288,-3.078805 -0.53288,-7.863387 l 0,-17.35181 c 0,-4.895271 0,-6.967528 1.07875,-8.319227 1.078751,-1.3517 3.231603,-1.893118 4.390222,-2.185781 1.158619,-0.292664 1.328089,-0.338073 4.91692,-1.299698 L 88.193634,31.57967 c 3.910177,-1.047729 4.694887,-1.257991 5.087069,-0.134093 0.392182,1.123898 0.392182,3.584091 0.392182,14.802792 0,-11.218701 0,-13.678894 0.392182,-14.802792 0.392182,-1.123898 1.176892,-0.913636 5.087069,0.134093 l 14.534714,3.894566 c 3.58884,0.961625 3.75831,1.007034 4.91692,1.299698 1.15862,0.292663 3.31148,0.834081 4.39023,2.185781 1.07875,1.351699 1.07875,3.423956 1.07875,8.319227 l 0,17.35181 c 0,4.784582 0,6.680698 -0.53288,7.863387 -0.53288,1.182688 -1.67211,1.683947 -4.63922,2.573809 -2.96711,0.889861 -7.79993,2.184812 -10.33654,2.864495 l -3.55477,0.952497 c -0.77719,0.208248 -2.0926,0.560711 -2.74972,2.217819 -0.65712,1.657108 -0.65712,4.620256 -0.65712,7.512862 v 7.125819 c 0,1.411244 -2e-5,1.411244 0.002,1.370449 0.002,-0.0408 0.005,-0.122188 -0.009,0.03985 -0.0139,0.162041 -0.0451,0.56759 0.28002,0.937134 0.32516,0.369543 1.00701,0.703389 4.86444,2.900564 3.85744,2.19717 10.89052,6.25772 14.31904,9.05967 3.42852,2.80195 3.25213,4.34535 3.25211,10.05016 -1e-5,5.70481 0.17635,15.56976 -0.41892,20.66475 -0.59527,5.095 -1.96165,5.41703 -7.08494,6.76776 -5.12329,1.35074 -14.00085,3.72947 -18.441952,4.43199 -4.441101,0.70252 -4.441101,-0.26908 -4.483062,-0.79979 -0.04196,-0.5307 -0.125616,-0.61436 -0.167313,-9.49768 -0.0417,-8.88332 -0.0417,-26.47788 -0.0417,-45.351608 0,18.873728 0,36.468288 -0.0417,45.351608 -0.0417,8.88332 -0.125353,8.96698 -0.167313,9.49768 -0.04196,0.53071 -0.04196,1.50231 -4.483062,0.79979 -4.441101,-0.70252 -13.318662,-3.08125 -18.44195,-4.43199 -5.123289,-1.35073 -6.489669,-1.67276 -7.084942,-6.76776 -0.595273,-5.09499 -0.418907,-14.95994 -0.418923,-20.66475 -1.6e-5,-5.70481 -0.176404,-7.24821 3.252114,-10.05016 3.428517,-2.80195 10.461596,-6.8625 14.319034,-9.05967 3.857438,-2.197175 4.539284,-2.531021 4.864441,-2.900564 0.325157,-0.369544 0.293962,-0.775093 0.280025,-0.937134 -0.01394,-0.162041 -0.01063,-0.08065 -0.009,-0.03985 0.0017,0.04079 0.0016,0.04079 0.0016,-1.370449 z"
                    id="path55"
                    inkscape:connector-curvature="0"
                    inkscape:path-effect="#path-effect57;#path-effect80"
                    inkscape:original-d="m 85.74327,97.152684 c 2.65e-4,-2.822487 2.65e-4,-5.644456 0,-8.466666 2.65e-4,-2.963003 2.65e-4,-5.926151 0,-8.888217 -1.314159,-0.352464 -2.629567,-0.704926 -3.943268,-1.056595 -0.240686,-0.06483 -0.481647,-0.129398 -0.722855,-0.193688 -4.832014,-1.295072 -9.664835,-2.590022 -14.496833,-3.884417 -1.102167,-0.485333 -2.248545,-0.970335 -3.307291,-1.455208 2.64e-4,-1.896443 2.64e-4,-3.792559 0,-5.688542 2.64e-4,-7.673181 2.64e-4,-15.345137 0,-23.018749 2.64e-4,-2.116931 2.64e-4,-4.189188 0,-6.35 2.157454,-0.542772 4.310306,-1.084191 6.471568,-1.627526 0.155974,-0.04199 0.315253,-0.125431 0.467132,-0.125167 7.035975,-1.885479 14.071687,-3.770691 21.107133,-5.65564 0.784906,-0.210509 1.569617,-0.420771 2.354029,-0.63076 2.64e-4,2.457966 2.64e-4,4.918159 0,7.377636 2.64e-4,19.977926 2.65e-4,39.951819 0,59.928125 2.65e-4,17.77115 2.65e-4,35.36571 0,53.04896 -0.08339,0.0834 -0.16705,0.16705 -0.250972,0.25097 2.64e-4,0.97749 2.64e-4,1.94909 0,2.92403 -8.882118,-2.38029 -17.759678,-4.75903 -26.639914,-7.13814 -1.366353,-0.32235 -2.732733,-0.64438 -4.099769,-0.96624 0.176677,-9.86782 0.353042,-19.73277 0.529167,-29.59875 -0.176125,-1.54367 -0.352514,-3.08707 -0.529167,-4.63021 7.033348,-4.06082 14.066432,-8.12136 21.09925,-12.181653 0.68205,-0.334081 1.363896,-0.667927 2.045447,-1.001493 -0.0309,-0.405434 -0.0621,-0.810982 -0.09354,-1.216076 0.0036,0.08102 0.0069,0.162413 0.0099,0.244016 z"
                    sodipodi:nodetypes="cccccccccccccccccccccccccccc" />
        </g>
    </g>
</svg>
